<mxfile host="app.diagrams.net" modified="2023-01-27T06:52:55.169Z" agent="5.0 (Windows NT 10.0; Win64; x64) AppleWebKit/537.36 (KHTML, like Gecko) Chrome/109.0.0.0 Safari/537.36" etag="3AwjZEnfMeFxsoWfoMsm" version="20.8.13" type="github">
  <diagram name="페이지-1" id="i2_iW8WWWB51VXID4rfu">
    <mxGraphModel dx="1434" dy="804" grid="1" gridSize="10" guides="1" tooltips="1" connect="1" arrows="1" fold="1" page="1" pageScale="1" pageWidth="1654" pageHeight="2336" math="0" shadow="0">
      <root>
        <mxCell id="0" />
        <mxCell id="1" parent="0" />
        <mxCell id="uAVWBllw0vdzFXxvWoM9-3" value="멤버십 API" style="shape=umlLifeline;perimeter=lifelinePerimeter;container=1;collapsible=0;recursiveResize=0;rounded=0;shadow=0;strokeWidth=1;fillColor=#e1d5e7;strokeColor=#9673a6;size=40;fontFamily=Verdana;fontSize=15;" vertex="1" parent="1">
          <mxGeometry x="320" y="80" width="120" height="880" as="geometry" />
        </mxCell>
        <mxCell id="uAVWBllw0vdzFXxvWoM9-4" value="" style="points=[];perimeter=orthogonalPerimeter;rounded=0;shadow=0;strokeWidth=1;fillColor=#e1d5e7;strokeColor=#9673a6;" vertex="1" parent="uAVWBllw0vdzFXxvWoM9-3">
          <mxGeometry x="55" y="201" width="10" height="39" as="geometry" />
        </mxCell>
        <mxCell id="uAVWBllw0vdzFXxvWoM9-24" value="" style="points=[];perimeter=orthogonalPerimeter;rounded=0;shadow=0;strokeWidth=1;fillColor=#e1d5e7;strokeColor=#9673a6;" vertex="1" parent="uAVWBllw0vdzFXxvWoM9-3">
          <mxGeometry x="55" y="578" width="10" height="30" as="geometry" />
        </mxCell>
        <mxCell id="uAVWBllw0vdzFXxvWoM9-6" value="홈페이지" style="shape=umlLifeline;perimeter=lifelinePerimeter;container=1;collapsible=0;recursiveResize=0;rounded=0;shadow=0;strokeWidth=1;fillColor=#dae8fc;strokeColor=#6c8ebf;fontFamily=Verdana;fontSize=15;" vertex="1" parent="1">
          <mxGeometry x="40" y="80" width="140" height="880" as="geometry" />
        </mxCell>
        <mxCell id="uAVWBllw0vdzFXxvWoM9-31" value="" style="points=[];perimeter=orthogonalPerimeter;rounded=0;shadow=0;strokeWidth=1;fillColor=#dae8fc;strokeColor=#6c8ebf;" vertex="1" parent="1">
          <mxGeometry x="105" y="190" width="10" height="270" as="geometry" />
        </mxCell>
        <mxCell id="uAVWBllw0vdzFXxvWoM9-9" value="산하(PMS, POS)" style="shape=umlLifeline;perimeter=lifelinePerimeter;container=1;collapsible=0;recursiveResize=0;rounded=0;shadow=0;strokeWidth=1;fillColor=#bac8d3;strokeColor=#23445d;fontFamily=Verdana;fontSize=15;" vertex="1" parent="1">
          <mxGeometry x="600" y="77" width="160" height="883" as="geometry" />
        </mxCell>
        <mxCell id="uAVWBllw0vdzFXxvWoM9-45" value="쿠폰 사용 완료" style="swimlane;horizontal=0;whiteSpace=wrap;html=1;startSize=23;fillColor=#d5e8d4;strokeColor=#82b366;fontFamily=Verdana;fontSize=17;fontStyle=0;direction=west;" vertex="1" parent="uAVWBllw0vdzFXxvWoM9-9">
          <mxGeometry x="-600" y="677" width="760" height="120" as="geometry" />
        </mxCell>
        <mxCell id="uAVWBllw0vdzFXxvWoM9-46" value="" style="points=[];perimeter=orthogonalPerimeter;rounded=0;shadow=0;strokeWidth=1;fillColor=#bac8d3;strokeColor=#23445d;" vertex="1" parent="uAVWBllw0vdzFXxvWoM9-45">
          <mxGeometry x="675" y="27" width="10" height="30" as="geometry" />
        </mxCell>
        <mxCell id="uAVWBllw0vdzFXxvWoM9-47" value="" style="points=[];perimeter=orthogonalPerimeter;rounded=0;shadow=0;strokeWidth=1;fillColor=#e1d5e7;strokeColor=#9673a6;" vertex="1" parent="uAVWBllw0vdzFXxvWoM9-45">
          <mxGeometry x="375" y="20" width="10" height="39" as="geometry" />
        </mxCell>
        <mxCell id="uAVWBllw0vdzFXxvWoM9-48" value="" style="endArrow=classic;html=1;rounded=0;exitX=0;exitY=0.76;exitDx=0;exitDy=0;exitPerimeter=0;" edge="1" parent="uAVWBllw0vdzFXxvWoM9-45">
          <mxGeometry width="50" height="50" relative="1" as="geometry">
            <mxPoint x="672" y="30" as="sourcePoint" />
            <mxPoint x="392" y="30" as="targetPoint" />
          </mxGeometry>
        </mxCell>
        <mxCell id="uAVWBllw0vdzFXxvWoM9-49" value="&lt;font color=&quot;#336600&quot; style=&quot;font-size: 12px;&quot;&gt;쿠폰 사용 완료&lt;/font&gt;&lt;font color=&quot;#cc0000&quot; style=&quot;font-size: 12px;&quot;&gt;&amp;nbsp;&lt;/font&gt;(쿠폰 일련번호 List)&amp;nbsp;" style="edgeLabel;html=1;align=center;verticalAlign=middle;resizable=0;points=[];fontFamily=Verdana;fontSize=12;" vertex="1" connectable="0" parent="uAVWBllw0vdzFXxvWoM9-48">
          <mxGeometry x="0.45" y="2" relative="1" as="geometry">
            <mxPoint x="67" y="-17" as="offset" />
          </mxGeometry>
        </mxCell>
        <mxCell id="uAVWBllw0vdzFXxvWoM9-50" value="200 OK" style="verticalAlign=bottom;endArrow=open;dashed=1;endSize=8;shadow=0;strokeWidth=1;exitX=1.4;exitY=0.5;exitDx=0;exitDy=0;exitPerimeter=0;fontFamily=Verdana;fontSize=12;" edge="1" parent="uAVWBllw0vdzFXxvWoM9-45">
          <mxGeometry x="0.0038" y="-25" relative="1" as="geometry">
            <mxPoint x="670" y="50" as="targetPoint" />
            <mxPoint x="391" y="49" as="sourcePoint" />
            <mxPoint as="offset" />
          </mxGeometry>
        </mxCell>
        <mxCell id="uAVWBllw0vdzFXxvWoM9-51" value="예약 쿠폰(체크인 or 체크아웃)&lt;br&gt;&amp;nbsp; &amp;nbsp; &amp;nbsp; &amp;nbsp; &amp;nbsp; &amp;nbsp; &amp;nbsp; &amp;nbsp; &amp;nbsp; 또는&amp;nbsp;&lt;br&gt;현장(매장) 즉시 쿠폰 사용" style="text;html=1;strokeColor=none;fillColor=none;align=left;verticalAlign=middle;whiteSpace=wrap;rounded=0;fontSize=12;fontFamily=Verdana;fontColor=#CC0000;" vertex="1" parent="uAVWBllw0vdzFXxvWoM9-45">
          <mxGeometry x="418" y="70" width="233" height="50" as="geometry" />
        </mxCell>
        <mxCell id="uAVWBllw0vdzFXxvWoM9-14" value="" style="endArrow=classic;html=1;rounded=0;entryX=-0.1;entryY=0.154;entryDx=0;entryDy=0;entryPerimeter=0;" edge="1" parent="1" target="uAVWBllw0vdzFXxvWoM9-4">
          <mxGeometry width="50" height="50" relative="1" as="geometry">
            <mxPoint x="120" y="287" as="sourcePoint" />
            <mxPoint x="340" y="287" as="targetPoint" />
          </mxGeometry>
        </mxCell>
        <mxCell id="uAVWBllw0vdzFXxvWoM9-17" value="&lt;font color=&quot;#cc6600&quot;&gt;쿠폰 사용 예약&lt;/font&gt; (선택된 쿠폰 일련번호 List)&amp;nbsp;" style="edgeLabel;html=1;align=center;verticalAlign=middle;resizable=0;points=[];fontFamily=Verdana;fontSize=12;" vertex="1" connectable="0" parent="uAVWBllw0vdzFXxvWoM9-14">
          <mxGeometry x="0.45" y="2" relative="1" as="geometry">
            <mxPoint x="-54" y="-9" as="offset" />
          </mxGeometry>
        </mxCell>
        <mxCell id="uAVWBllw0vdzFXxvWoM9-16" value="200 OK" style="verticalAlign=bottom;endArrow=open;dashed=1;endSize=8;shadow=0;strokeWidth=1;fontSize=12;exitX=-0.2;exitY=0.769;exitDx=0;exitDy=0;exitPerimeter=0;" edge="1" parent="1" source="uAVWBllw0vdzFXxvWoM9-4">
          <mxGeometry y="19" relative="1" as="geometry">
            <mxPoint x="120" y="311" as="targetPoint" />
            <mxPoint x="360" y="311" as="sourcePoint" />
            <mxPoint as="offset" />
          </mxGeometry>
        </mxCell>
        <mxCell id="uAVWBllw0vdzFXxvWoM9-21" value="" style="endArrow=classic;html=1;rounded=0;entryX=-0.3;entryY=0.133;entryDx=0;entryDy=0;entryPerimeter=0;" edge="1" parent="1" target="uAVWBllw0vdzFXxvWoM9-20">
          <mxGeometry width="50" height="50" relative="1" as="geometry">
            <mxPoint x="120" y="370" as="sourcePoint" />
            <mxPoint x="660" y="359" as="targetPoint" />
          </mxGeometry>
        </mxCell>
        <mxCell id="uAVWBllw0vdzFXxvWoM9-22" value="&lt;font color=&quot;#cc6600&quot;&gt;객실 예약&lt;/font&gt; (객실정보 및 쿠폰 일련번호 List)" style="edgeLabel;html=1;align=center;verticalAlign=middle;resizable=0;points=[];fontFamily=Verdana;fontSize=12;" vertex="1" connectable="0" parent="uAVWBllw0vdzFXxvWoM9-21">
          <mxGeometry x="0.45" y="2" relative="1" as="geometry">
            <mxPoint x="-95" y="-8" as="offset" />
          </mxGeometry>
        </mxCell>
        <mxCell id="uAVWBllw0vdzFXxvWoM9-23" value="200 OK" style="verticalAlign=bottom;endArrow=open;dashed=1;endSize=8;shadow=0;strokeWidth=1;fontSize=12;" edge="1" parent="1">
          <mxGeometry y="19" relative="1" as="geometry">
            <mxPoint x="120" y="450" as="targetPoint" />
            <mxPoint x="670" y="450" as="sourcePoint" />
            <mxPoint as="offset" />
          </mxGeometry>
        </mxCell>
        <mxCell id="uAVWBllw0vdzFXxvWoM9-26" value="Web 예약" style="swimlane;horizontal=0;whiteSpace=wrap;html=1;startSize=23;fillColor=#ffe6cc;strokeColor=#d79b00;fontFamily=Verdana;fontSize=17;fontStyle=0" vertex="1" parent="1">
          <mxGeometry y="170" width="800" height="310" as="geometry" />
        </mxCell>
        <mxCell id="uAVWBllw0vdzFXxvWoM9-20" value="" style="points=[];perimeter=orthogonalPerimeter;rounded=0;shadow=0;strokeWidth=1;fillColor=#bac8d3;strokeColor=#23445d;" vertex="1" parent="uAVWBllw0vdzFXxvWoM9-26">
          <mxGeometry x="675" y="185" width="10" height="105" as="geometry" />
        </mxCell>
        <mxCell id="uAVWBllw0vdzFXxvWoM9-55" value="" style="points=[];perimeter=orthogonalPerimeter;rounded=0;shadow=0;strokeWidth=1;fillColor=#e1d5e7;strokeColor=#9673a6;" vertex="1" parent="uAVWBllw0vdzFXxvWoM9-26">
          <mxGeometry x="375" y="30" width="10" height="39" as="geometry" />
        </mxCell>
        <mxCell id="uAVWBllw0vdzFXxvWoM9-56" value="" style="endArrow=classic;html=1;rounded=0;entryX=-0.1;entryY=0.154;entryDx=0;entryDy=0;entryPerimeter=0;" edge="1" parent="uAVWBllw0vdzFXxvWoM9-26" target="uAVWBllw0vdzFXxvWoM9-55">
          <mxGeometry width="50" height="50" relative="1" as="geometry">
            <mxPoint x="120" y="36" as="sourcePoint" />
            <mxPoint x="340" y="36" as="targetPoint" />
          </mxGeometry>
        </mxCell>
        <mxCell id="uAVWBllw0vdzFXxvWoM9-57" value="&lt;font color=&quot;#cc6600&quot;&gt;예약 가능한 쿠폰 조회&lt;/font&gt; (예약일자, 호텔코드, 시장코드, 룸타입 등)&amp;nbsp;" style="edgeLabel;html=1;align=center;verticalAlign=middle;resizable=0;points=[];fontFamily=Verdana;fontSize=12;" vertex="1" connectable="0" parent="uAVWBllw0vdzFXxvWoM9-56">
          <mxGeometry x="0.45" y="2" relative="1" as="geometry">
            <mxPoint x="6" y="-14" as="offset" />
          </mxGeometry>
        </mxCell>
        <mxCell id="uAVWBllw0vdzFXxvWoM9-58" value="200 OK  (쿠폰명, 쿠폰 일련번호 등 List)" style="verticalAlign=bottom;endArrow=open;dashed=1;endSize=8;shadow=0;strokeWidth=1;fontSize=12;exitX=-0.2;exitY=0.769;exitDx=0;exitDy=0;exitPerimeter=0;" edge="1" parent="uAVWBllw0vdzFXxvWoM9-26" source="uAVWBllw0vdzFXxvWoM9-55">
          <mxGeometry y="19" relative="1" as="geometry">
            <mxPoint x="120" y="60" as="targetPoint" />
            <mxPoint x="360" y="60" as="sourcePoint" />
            <mxPoint as="offset" />
          </mxGeometry>
        </mxCell>
        <mxCell id="uAVWBllw0vdzFXxvWoM9-59" value="" style="points=[];perimeter=orthogonalPerimeter;rounded=0;shadow=0;strokeWidth=1;fillColor=#e1d5e7;strokeColor=#9673a6;" vertex="1" parent="uAVWBllw0vdzFXxvWoM9-26">
          <mxGeometry x="375" y="230" width="10" height="27" as="geometry" />
        </mxCell>
        <mxCell id="uAVWBllw0vdzFXxvWoM9-5" value="쿠폰 검증" style="endArrow=classic;html=1;rounded=0;exitX=1;exitY=0.714;exitDx=0;exitDy=0;exitPerimeter=0;entryX=1;entryY=0.943;entryDx=0;entryDy=0;entryPerimeter=0;" edge="1" parent="uAVWBllw0vdzFXxvWoM9-26">
          <mxGeometry x="-0.0438" y="35" width="50" height="50" relative="1" as="geometry">
            <mxPoint x="685" y="248.97000000000003" as="sourcePoint" />
            <mxPoint x="685" y="273.0150000000001" as="targetPoint" />
            <Array as="points">
              <mxPoint x="705" y="259" />
            </Array>
            <mxPoint x="15" y="-28" as="offset" />
          </mxGeometry>
        </mxCell>
        <mxCell id="uAVWBllw0vdzFXxvWoM9-32" value="Web 예약 취소" style="swimlane;horizontal=0;whiteSpace=wrap;html=1;startSize=23;fillColor=#f8cecc;strokeColor=#b85450;fontFamily=Verdana;fontSize=17;fontStyle=0" vertex="1" parent="1">
          <mxGeometry y="554" width="800" height="150" as="geometry" />
        </mxCell>
        <mxCell id="uAVWBllw0vdzFXxvWoM9-34" value="" style="points=[];perimeter=orthogonalPerimeter;rounded=0;shadow=0;strokeWidth=1;fillColor=#bac8d3;strokeColor=#23445d;" vertex="1" parent="uAVWBllw0vdzFXxvWoM9-32">
          <mxGeometry x="675" y="30" width="10" height="100" as="geometry" />
        </mxCell>
        <mxCell id="uAVWBllw0vdzFXxvWoM9-35" value="" style="endArrow=classic;html=1;rounded=0;entryX=0;entryY=0.03;entryDx=0;entryDy=0;entryPerimeter=0;" edge="1" parent="uAVWBllw0vdzFXxvWoM9-32" target="uAVWBllw0vdzFXxvWoM9-34">
          <mxGeometry width="50" height="50" relative="1" as="geometry">
            <mxPoint x="120" y="33" as="sourcePoint" />
            <mxPoint x="660" y="33" as="targetPoint" />
          </mxGeometry>
        </mxCell>
        <mxCell id="uAVWBllw0vdzFXxvWoM9-36" value="&lt;font color=&quot;#cc0000&quot;&gt;객실 예약 취소&lt;/font&gt; (객실정보)" style="edgeLabel;html=1;align=center;verticalAlign=middle;resizable=0;points=[];fontFamily=Verdana;fontSize=12;" vertex="1" connectable="0" parent="uAVWBllw0vdzFXxvWoM9-35">
          <mxGeometry x="0.45" y="2" relative="1" as="geometry">
            <mxPoint x="-95" y="-8" as="offset" />
          </mxGeometry>
        </mxCell>
        <mxCell id="uAVWBllw0vdzFXxvWoM9-37" value="200 OK" style="verticalAlign=bottom;endArrow=open;dashed=1;endSize=8;shadow=0;strokeWidth=1;fontSize=12;exitX=-0.3;exitY=0.18;exitDx=0;exitDy=0;exitPerimeter=0;" edge="1" parent="uAVWBllw0vdzFXxvWoM9-32" source="uAVWBllw0vdzFXxvWoM9-34">
          <mxGeometry y="19" relative="1" as="geometry">
            <mxPoint x="120" y="47" as="targetPoint" />
            <mxPoint x="656" y="47" as="sourcePoint" />
            <mxPoint as="offset" />
          </mxGeometry>
        </mxCell>
        <mxCell id="uAVWBllw0vdzFXxvWoM9-38" value="" style="endArrow=classic;html=1;rounded=0;exitX=0;exitY=0.76;exitDx=0;exitDy=0;exitPerimeter=0;" edge="1" parent="uAVWBllw0vdzFXxvWoM9-32" source="uAVWBllw0vdzFXxvWoM9-34">
          <mxGeometry width="50" height="50" relative="1" as="geometry">
            <mxPoint x="650" y="106" as="sourcePoint" />
            <mxPoint x="390" y="106" as="targetPoint" />
          </mxGeometry>
        </mxCell>
        <mxCell id="uAVWBllw0vdzFXxvWoM9-39" value="&lt;font color=&quot;#cc0000&quot; style=&quot;font-size: 12px;&quot;&gt;쿠폰 취소&lt;/font&gt; (쿠폰 일련번호 List)&amp;nbsp;" style="edgeLabel;html=1;align=center;verticalAlign=middle;resizable=0;points=[];fontFamily=Verdana;fontSize=12;" vertex="1" connectable="0" parent="uAVWBllw0vdzFXxvWoM9-38">
          <mxGeometry x="0.45" y="2" relative="1" as="geometry">
            <mxPoint x="67" y="-17" as="offset" />
          </mxGeometry>
        </mxCell>
        <mxCell id="uAVWBllw0vdzFXxvWoM9-54" value="" style="points=[];perimeter=orthogonalPerimeter;rounded=0;shadow=0;strokeWidth=1;fillColor=#dae8fc;strokeColor=#6c8ebf;" vertex="1" parent="uAVWBllw0vdzFXxvWoM9-32">
          <mxGeometry x="105" y="30" width="10" height="30" as="geometry" />
        </mxCell>
        <mxCell id="uAVWBllw0vdzFXxvWoM9-40" value="200 OK" style="verticalAlign=bottom;endArrow=open;dashed=1;endSize=8;shadow=0;strokeWidth=1;exitX=1.4;exitY=0.5;exitDx=0;exitDy=0;exitPerimeter=0;fontFamily=Verdana;entryX=-0.3;entryY=0.95;entryDx=0;entryDy=0;entryPerimeter=0;fontSize=12;" edge="1" parent="1" target="uAVWBllw0vdzFXxvWoM9-34">
          <mxGeometry x="0.0038" y="-25" relative="1" as="geometry">
            <mxPoint x="650" y="679" as="targetPoint" />
            <mxPoint x="389" y="679" as="sourcePoint" />
            <mxPoint as="offset" />
          </mxGeometry>
        </mxCell>
        <mxCell id="uAVWBllw0vdzFXxvWoM9-52" value="프론트 유선 예약" style="swimlane;horizontal=0;whiteSpace=wrap;html=1;startSize=23;fillColor=#ffe6cc;strokeColor=#d79b00;fontFamily=Verdana;fontSize=17;fontStyle=0;direction=west;" vertex="1" parent="1">
          <mxGeometry y="914" width="760" height="150" as="geometry" />
        </mxCell>
        <mxCell id="uAVWBllw0vdzFXxvWoM9-53" value="" style="points=[];perimeter=orthogonalPerimeter;rounded=0;shadow=0;strokeWidth=1;fillColor=#bac8d3;strokeColor=#23445d;" vertex="1" parent="uAVWBllw0vdzFXxvWoM9-52">
          <mxGeometry x="675" y="20" width="10" height="30" as="geometry" />
        </mxCell>
        <mxCell id="uAVWBllw0vdzFXxvWoM9-60" value="" style="endArrow=classic;html=1;rounded=0;exitX=-0.4;exitY=0.429;exitDx=0;exitDy=0;exitPerimeter=0;" edge="1" parent="1" source="uAVWBllw0vdzFXxvWoM9-20">
          <mxGeometry width="50" height="50" relative="1" as="geometry">
            <mxPoint x="800" y="390" as="sourcePoint" />
            <mxPoint x="390" y="400" as="targetPoint" />
          </mxGeometry>
        </mxCell>
        <mxCell id="uAVWBllw0vdzFXxvWoM9-61" value="&lt;font color=&quot;#cc6600&quot;&gt;예약 쿠폰 조회&lt;/font&gt; (쿠폰 일련번호 List)&amp;nbsp;" style="edgeLabel;html=1;align=center;verticalAlign=middle;resizable=0;points=[];fontFamily=Verdana;fontSize=12;" vertex="1" connectable="0" parent="uAVWBllw0vdzFXxvWoM9-60">
          <mxGeometry x="0.45" y="2" relative="1" as="geometry">
            <mxPoint x="68" y="-12" as="offset" />
          </mxGeometry>
        </mxCell>
        <mxCell id="uAVWBllw0vdzFXxvWoM9-62" value="200 OK  (쿠폰명, 쿠폰 상태 등 List)" style="verticalAlign=bottom;endArrow=open;dashed=1;endSize=8;shadow=0;strokeWidth=1;fontSize=12;exitX=1;exitY=0.852;exitDx=0;exitDy=0;exitPerimeter=0;" edge="1" parent="1">
          <mxGeometry x="0.0175" y="-25" relative="1" as="geometry">
            <mxPoint x="670" y="415" as="targetPoint" />
            <mxPoint x="385" y="415.0039999999999" as="sourcePoint" />
            <mxPoint as="offset" />
          </mxGeometry>
        </mxCell>
      </root>
    </mxGraphModel>
  </diagram>
</mxfile>
